<svg width="21" height="21" viewBox="0 0 21 21" fill="none" xmlns="http://www.w3.org/2000/svg">
<path id="fb-ic" d="M20.1469 0.166016H1.15578C0.699063 0.166016 0.330078 0.524276 0.330078 0.967718V19.4069C0.330078 19.8503 0.699063 20.2086 1.15578 20.2086H20.1469C20.6036 20.2086 20.9726 19.8503 20.9726 19.4069V0.967718C20.9726 0.524276 20.6036 0.166016 20.1469 0.166016ZM17.7627 6.01594H16.1139C14.8211 6.01594 14.5708 6.6122 14.5708 7.48906V9.42066H17.6569L17.2544 12.4446H14.5708V20.2086H11.3532V12.4471H8.66191V9.42066H11.3532V7.19093C11.3532 4.60294 12.9814 3.19244 15.3604 3.19244C16.5009 3.19244 17.4788 3.27512 17.7653 3.3127V6.01594H17.7627Z" fill="url(#paint0_linear_36_23413)"/>
<defs>
<linearGradient id="paint0_linear_36_23413" x1="10.6513" y1="0.166016" x2="10.6513" y2="20.2086" gradientUnits="userSpaceOnUse">
<stop stop-color="#F0745E"/>
<stop offset="1" stop-color="#FF330F"/>
</linearGradient>
</defs>
</svg>
