<svg width="21" height="21" viewBox="0 0 21 21" fill="none" xmlns="http://www.w3.org/2000/svg">
<path id="google-ic" d="M19.8539 0.166016H0.86281C0.406094 0.166016 0.0371094 0.524276 0.0371094 0.967718V19.4069C0.0371094 19.8503 0.406094 20.2086 0.86281 20.2086H19.8539C20.3106 20.2086 20.6796 19.8503 20.6796 19.4069V0.967718C20.6796 0.524276 20.3106 0.166016 19.8539 0.166016ZM11.3002 12.9632C10.1674 14.5115 7.89159 14.9624 6.11633 14.2985C4.33591 13.6396 3.07156 11.8132 3.2238 9.95179C3.2625 7.67446 5.42223 5.67772 7.76773 5.75538C8.89275 5.70528 9.95068 6.17878 10.8125 6.8477C10.4435 7.25356 10.0642 7.64439 9.65652 8.00766C8.62181 7.31369 7.14846 7.11577 6.11375 7.91747C4.63265 8.91208 4.56556 11.2596 5.98989 12.3293C7.37552 13.5494 9.99454 12.9431 10.379 11.0742C9.51202 11.0616 8.63988 11.0742 7.77289 11.0466C7.77031 10.543 7.76773 10.042 7.77031 9.53841C9.22045 9.5334 10.6732 9.5309 12.1259 9.54342C12.211 10.7284 12.0485 11.9861 11.3002 12.9632ZM17.5574 10.8011C17.124 10.8061 16.6905 10.8086 16.257 10.8111C16.2518 11.232 16.2492 11.6529 16.2492 12.0738H14.9513C14.9462 11.6529 14.9462 11.2345 14.9436 10.8136C14.5101 10.8086 14.0766 10.8061 13.6431 10.8011V9.54593C14.0766 9.54092 14.5101 9.53841 14.9436 9.53841C14.9462 9.11752 14.9513 8.69663 14.9539 8.27573H16.2492L16.257 9.53841C16.6905 9.54343 17.124 9.54343 17.5574 9.54593V10.8011Z" fill="url(#paint0_linear_36_23415)"/>
<defs>
<linearGradient id="paint0_linear_36_23415" x1="10.3584" y1="0.166016" x2="10.3584" y2="20.2086" gradientUnits="userSpaceOnUse">
<stop stop-color="#F0745E"/>
<stop offset="1" stop-color="#FF330F"/>
</linearGradient>
</defs>
</svg>
