<svg width="22" height="21" viewBox="0 0 22 21" fill="none" xmlns="http://www.w3.org/2000/svg">
<path id="insta-ic" d="M11.2311 6.84544C9.33588 6.84544 7.78926 8.34715 7.78926 10.1873C7.78926 12.0274 9.33588 13.5291 11.2311 13.5291C13.1263 13.5291 14.6729 12.0274 14.6729 10.1873C14.6729 8.34715 13.1263 6.84544 11.2311 6.84544ZM21.554 10.1873C21.554 8.80342 21.5669 7.43209 21.4868 6.05072C21.4068 4.44623 21.0298 3.02225 19.8214 1.84897C18.6105 0.673178 17.1465 0.309661 15.494 0.231944C14.0687 0.154226 12.6564 0.166761 11.2337 0.166761C9.80839 0.166761 8.39603 0.154226 6.97335 0.231944C5.32086 0.309661 3.85428 0.675685 2.64589 1.84897C1.43493 3.02476 1.06054 4.44623 0.980498 6.05072C0.900456 7.43459 0.913366 8.80593 0.913366 10.1873C0.913366 11.5687 0.900456 12.9425 0.980498 14.3239C1.06054 15.9284 1.43751 17.3523 2.64589 18.5256C3.85686 19.7014 5.32086 20.0649 6.97335 20.1426C8.39862 20.2204 9.81097 20.2078 11.2337 20.2078C12.6589 20.2078 14.0713 20.2204 15.494 20.1426C17.1465 20.0649 18.6131 19.6989 19.8214 18.5256C21.0324 17.3498 21.4068 15.9284 21.4868 14.3239C21.5695 12.9425 21.554 11.5712 21.554 10.1873ZM11.2311 15.3292C8.3005 15.3292 5.93538 13.0328 5.93538 10.1873C5.93538 7.34183 8.3005 5.04541 11.2311 5.04541C14.1617 5.04541 16.5268 7.34183 16.5268 10.1873C16.5268 13.0328 14.1617 15.3292 11.2311 15.3292ZM16.7437 6.03568C16.0594 6.03568 15.5069 5.49918 15.5069 4.83482C15.5069 4.17046 16.0594 3.63396 16.7437 3.63396C17.4279 3.63396 17.9805 4.17046 17.9805 4.83482C17.9807 4.99257 17.9488 5.14882 17.8867 5.2946C17.8246 5.44039 17.7336 5.57285 17.6187 5.6844C17.5038 5.79595 17.3674 5.88439 17.2172 5.94467C17.0671 6.00495 16.9061 6.03588 16.7437 6.03568Z" fill="url(#paint0_linear_36_23414)"/>
<defs>
<linearGradient id="paint0_linear_36_23414" x1="11.2339" y1="0.166016" x2="11.2339" y2="20.2086" gradientUnits="userSpaceOnUse">
<stop stop-color="#F0745E"/>
<stop offset="1" stop-color="#FF330F"/>
</linearGradient>
</defs>
</svg>
