<svg width="25" height="20" viewBox="0 0 25 20" fill="none" xmlns="http://www.w3.org/2000/svg">
<g id="tweet-ic">
<path id="Vector" d="M24.431 2.41084C23.5493 2.79018 22.6021 3.0465 21.6063 3.16235C22.6338 2.56544 23.4024 1.62597 23.7689 0.519236C22.8036 1.07594 21.7471 1.4678 20.6454 1.67778C19.9045 0.909722 18.9232 0.400641 17.8538 0.229574C16.7844 0.0585072 15.6868 0.235026 14.7313 0.731724C13.7758 1.22842 13.0159 2.01751 12.5697 2.97648C12.1234 3.93545 12.0157 5.01064 12.2633 6.03513C10.3073 5.93978 8.39388 5.44617 6.64713 4.58634C4.90037 3.72651 3.35934 2.51968 2.12405 1.04417C1.70167 1.7516 1.4588 2.57181 1.4588 3.44533C1.45833 4.23169 1.65777 5.00602 2.03944 5.6996C2.42111 6.39317 2.9732 6.98456 3.64672 7.42128C2.86561 7.39715 2.10174 7.19222 1.41867 6.82355V6.88507C1.41859 7.98798 1.81152 9.05696 2.53078 9.91061C3.25004 10.7643 4.25133 11.35 5.36475 11.5685C4.64014 11.7589 3.88045 11.7869 3.14304 11.6505C3.45718 12.5995 4.0691 13.4293 4.89313 14.0239C5.71717 14.6184 6.71206 14.9479 7.73853 14.9662C5.99604 16.2943 3.84407 17.0147 1.62881 17.0116C1.23639 17.0117 0.844316 16.9894 0.45459 16.9449C2.70321 18.3487 5.32076 19.0937 7.99407 19.0908C17.0436 19.0908 21.9907 11.8135 21.9907 5.502C21.9907 5.29694 21.9854 5.08984 21.9759 4.88479C22.9382 4.20912 23.7688 3.37243 24.4289 2.41391L24.431 2.41084Z" fill="url(#paint0_linear_36_23411)"/>
</g>
<defs>
<linearGradient id="paint0_linear_36_23411" x1="12.4428" y1="0.166016" x2="12.4428" y2="19.0908" gradientUnits="userSpaceOnUse">
<stop stop-color="#F0745E"/>
<stop offset="1" stop-color="#FF330F"/>
</linearGradient>
</defs>
</svg>
