<svg width="21" height="21" viewBox="0 0 21 21" fill="none" xmlns="http://www.w3.org/2000/svg">
<path id="fb-ic" d="M20.147 0.166016H1.1559C0.699185 0.166016 0.3302 0.524276 0.3302 0.967718V19.4069C0.3302 19.8503 0.699185 20.2086 1.1559 20.2086H20.147C20.6037 20.2086 20.9727 19.8503 20.9727 19.4069V0.967718C20.9727 0.524276 20.6037 0.166016 20.147 0.166016ZM17.7628 6.01594H16.114C14.8212 6.01594 14.571 6.6122 14.571 7.48906V9.42066H17.657L17.2545 12.4446H14.571V20.2086H11.3533V12.4471H8.66204V9.42066H11.3533V7.19093C11.3533 4.60294 12.9815 3.19244 15.3605 3.19244C16.501 3.19244 17.479 3.27512 17.7654 3.3127V6.01594H17.7628Z" fill="url(#paint0_linear_10_14361)"/>
<defs>
<linearGradient id="paint0_linear_10_14361" x1="10.6515" y1="0.166016" x2="10.6515" y2="20.2086" gradientUnits="userSpaceOnUse">
<stop stop-color="#F0745E"/>
<stop offset="1" stop-color="#FF330F"/>
</linearGradient>
</defs>
</svg>
