<svg width="22" height="21" viewBox="0 0 22 21" fill="none" xmlns="http://www.w3.org/2000/svg">
<path id="insta-ic" d="M11.2312 6.84544C9.33601 6.84544 7.78938 8.34714 7.78938 10.1873C7.78938 12.0274 9.33601 13.5291 11.2312 13.5291C13.1264 13.5291 14.673 12.0274 14.673 10.1873C14.673 8.34714 13.1264 6.84544 11.2312 6.84544ZM21.5541 10.1873C21.5541 8.80342 21.567 7.43208 21.487 6.05072C21.4069 4.44623 21.0299 3.02225 19.8216 1.84897C18.6106 0.673178 17.1466 0.309661 15.4941 0.231944C14.0688 0.154226 12.6565 0.166761 11.2338 0.166761C9.80851 0.166761 8.39616 0.154226 6.97347 0.231944C5.32098 0.309661 3.8544 0.675685 2.64602 1.84897C1.43505 3.02476 1.06066 4.44623 0.98062 6.05072C0.900578 7.43459 0.913488 8.80593 0.913488 10.1873C0.913488 11.5687 0.900578 12.9425 0.98062 14.3239C1.06066 15.9284 1.43764 17.3523 2.64602 18.5256C3.85698 19.7014 5.32098 20.0649 6.97347 20.1426C8.39874 20.2204 9.8111 20.2078 11.2338 20.2078C12.6591 20.2078 14.0714 20.2204 15.4941 20.1426C17.1466 20.0649 18.6132 19.6989 19.8216 18.5256C21.0325 17.3498 21.4069 15.9284 21.487 14.3239C21.5696 12.9425 21.5541 11.5712 21.5541 10.1873V10.1873ZM11.2312 15.3292C8.30062 15.3292 5.9355 13.0328 5.9355 10.1873C5.9355 7.34183 8.30062 5.04541 11.2312 5.04541C14.1618 5.04541 16.5269 7.34183 16.5269 10.1873C16.5269 13.0328 14.1618 15.3292 11.2312 15.3292ZM16.7438 6.03568C16.0596 6.03568 15.507 5.49918 15.507 4.83482C15.507 4.17046 16.0596 3.63396 16.7438 3.63396C17.428 3.63396 17.9806 4.17046 17.9806 4.83482C17.9808 4.99257 17.9489 5.14882 17.8868 5.2946C17.8248 5.44039 17.7337 5.57285 17.6188 5.6844C17.5039 5.79595 17.3675 5.88439 17.2173 5.94467C17.0672 6.00495 16.9063 6.03588 16.7438 6.03568V6.03568Z" fill="url(#paint0_linear_10_14362)"/>
<defs>
<linearGradient id="paint0_linear_10_14362" x1="11.234" y1="0.166016" x2="11.234" y2="20.2086" gradientUnits="userSpaceOnUse">
<stop stop-color="#F0745E"/>
<stop offset="1" stop-color="#FF330F"/>
</linearGradient>
</defs>
</svg>
